<mxfile host="app.diagrams.net" modified="2021-12-06T12:48:08.278Z" agent="5.0 (X11)" etag="gC9T9VhiUw-O5esOM1UV" version="15.9.1" type="github">
  <diagram name="Page-1" id="7e0a89b8-554c-2b80-1dc8-d5c74ca68de4">
    <mxGraphModel dx="1177" dy="450" grid="1" gridSize="10" guides="1" tooltips="1" connect="1" arrows="1" fold="1" page="1" pageScale="1" pageWidth="1100" pageHeight="850" background="none" math="0" shadow="0">
      <root>
        <mxCell id="0" />
        <mxCell id="1" parent="0" />
        <mxCell id="lYxft5gLZUOzFupG9jvv-9" value="" style="rounded=0;whiteSpace=wrap;html=1;strokeColor=none;fillColor=#dae8fc;" parent="1" vertex="1">
          <mxGeometry x="545" y="600" width="20" height="50" as="geometry" />
        </mxCell>
        <mxCell id="lYxft5gLZUOzFupG9jvv-6" value="" style="rounded=0;whiteSpace=wrap;html=1;strokeColor=none;fillColor=#dae8fc;" parent="1" vertex="1">
          <mxGeometry x="565" y="590" width="20" height="50" as="geometry" />
        </mxCell>
        <mxCell id="lYxft5gLZUOzFupG9jvv-1" value="" style="shape=filledEdge;rounded=0;fixDash=1;endArrow=none;strokeWidth=10;fillColor=#dae8fc;edgeStyle=orthogonalEdgeStyle;strokeColor=#6c8ebf;" parent="1" edge="1">
          <mxGeometry width="60" height="40" relative="1" as="geometry">
            <mxPoint x="560" y="630" as="sourcePoint" />
            <mxPoint x="570" y="590" as="targetPoint" />
            <Array as="points">
              <mxPoint x="560" y="350" />
              <mxPoint x="570" y="350" />
              <mxPoint x="570" y="610" />
            </Array>
          </mxGeometry>
        </mxCell>
        <mxCell id="lYxft5gLZUOzFupG9jvv-10" value="" style="endArrow=classic;html=1;rounded=0;startArrow=none;" parent="1" edge="1">
          <mxGeometry width="50" height="50" relative="1" as="geometry">
            <mxPoint x="500" y="650" as="sourcePoint" />
            <mxPoint x="500" y="320" as="targetPoint" />
          </mxGeometry>
        </mxCell>
        <mxCell id="lYxft5gLZUOzFupG9jvv-11" value="z" style="text;html=1;strokeColor=none;fillColor=none;align=center;verticalAlign=middle;whiteSpace=wrap;rounded=0;" parent="1" vertex="1">
          <mxGeometry x="470" y="310" width="20" height="30" as="geometry" />
        </mxCell>
        <mxCell id="lYxft5gLZUOzFupG9jvv-12" value="z&lt;sub&gt;0&lt;/sub&gt;=0" style="text;html=1;strokeColor=none;fillColor=none;align=center;verticalAlign=middle;whiteSpace=wrap;rounded=0;" parent="1" vertex="1">
          <mxGeometry x="470" y="640" width="20" height="15" as="geometry" />
        </mxCell>
        <mxCell id="lYxft5gLZUOzFupG9jvv-14" value="" style="edgeStyle=segmentEdgeStyle;endArrow=classic;html=1;rounded=0;dashed=1;" parent="1" edge="1">
          <mxGeometry width="50" height="50" relative="1" as="geometry">
            <mxPoint x="570" y="610" as="sourcePoint" />
            <mxPoint x="560" y="630" as="targetPoint" />
            <Array as="points">
              <mxPoint x="560" y="350" />
            </Array>
          </mxGeometry>
        </mxCell>
        <mxCell id="lYxft5gLZUOzFupG9jvv-15" value="z&lt;sub&gt;w1&lt;/sub&gt;" style="text;html=1;strokeColor=none;fillColor=none;align=center;verticalAlign=middle;whiteSpace=wrap;rounded=0;" parent="1" vertex="1">
          <mxGeometry x="470" y="581" width="20" height="10" as="geometry" />
        </mxCell>
        <mxCell id="lYxft5gLZUOzFupG9jvv-16" value="z&lt;sub&gt;w2&lt;/sub&gt;" style="text;html=1;strokeColor=none;fillColor=none;align=center;verticalAlign=middle;whiteSpace=wrap;rounded=0;" parent="1" vertex="1">
          <mxGeometry x="470" y="594" width="20" height="7" as="geometry" />
        </mxCell>
        <mxCell id="lYxft5gLZUOzFupG9jvv-17" value="z&lt;sub&gt;s&lt;/sub&gt;" style="text;html=1;strokeColor=none;fillColor=none;align=center;verticalAlign=middle;whiteSpace=wrap;rounded=0;" parent="1" vertex="1">
          <mxGeometry x="468" y="606" width="20" height="10" as="geometry" />
        </mxCell>
        <mxCell id="lYxft5gLZUOzFupG9jvv-18" value="z&lt;sub&gt;e&lt;/sub&gt;" style="text;whiteSpace=wrap;html=1;verticalAlign=middle;" parent="1" vertex="1">
          <mxGeometry x="470" y="625" width="20" height="10" as="geometry" />
        </mxCell>
        <mxCell id="lYxft5gLZUOzFupG9jvv-19" value="" style="endArrow=none;html=1;rounded=0;dashed=1;dashPattern=1 1;strokeWidth=1;" parent="1" edge="1">
          <mxGeometry width="50" height="50" relative="1" as="geometry">
            <mxPoint x="500" y="650" as="sourcePoint" />
            <mxPoint x="500" y="650" as="targetPoint" />
          </mxGeometry>
        </mxCell>
        <mxCell id="lYxft5gLZUOzFupG9jvv-21" value="x" style="text;html=1;strokeColor=none;fillColor=none;align=center;verticalAlign=middle;whiteSpace=wrap;rounded=0;" parent="1" vertex="1">
          <mxGeometry x="550" y="626" width="20" height="15" as="geometry" />
        </mxCell>
        <mxCell id="lYxft5gLZUOzFupG9jvv-23" value="&lt;div align=&quot;left&quot;&gt;x: Position along flow path in tube&lt;/div&gt;&lt;div align=&quot;left&quot;&gt;z: Vertical position relative to z&lt;sub&gt;0&lt;/sub&gt;&lt;br&gt;&lt;/div&gt;&lt;div align=&quot;left&quot;&gt;z&lt;sub&gt;w1&lt;/sub&gt;: Water table position in Reservoir 1&lt;/div&gt;&lt;div align=&quot;left&quot;&gt;&lt;div align=&quot;left&quot;&gt;z&lt;sub&gt;w2&lt;/sub&gt;: Water table position in Reservoir 2&lt;/div&gt;&lt;div align=&quot;left&quot;&gt;z&lt;sub&gt;s&lt;/sub&gt;: z at x=0 (start of tube)&lt;br&gt;&lt;div align=&quot;left&quot;&gt;&lt;div align=&quot;left&quot;&gt;z&lt;sub&gt;e&lt;/sub&gt;: z at x=2 z&lt;sub&gt;max&lt;/sub&gt;-z&lt;sub&gt;s&lt;/sub&gt;-z&lt;sub&gt;e&lt;/sub&gt; (end of tube)&lt;/div&gt;&lt;/div&gt;&lt;/div&gt;&lt;/div&gt;" style="text;html=1;strokeColor=none;fillColor=none;align=left;verticalAlign=middle;whiteSpace=wrap;rounded=0;" parent="1" vertex="1">
          <mxGeometry x="650" y="330" width="250" height="110" as="geometry" />
        </mxCell>
        <mxCell id="lYxft5gLZUOzFupG9jvv-30" value="z&lt;sub&gt;max&lt;/sub&gt;" style="text;html=1;strokeColor=none;fillColor=none;align=center;verticalAlign=middle;whiteSpace=wrap;rounded=0;" parent="1" vertex="1">
          <mxGeometry x="470" y="330" width="20" height="30" as="geometry" />
        </mxCell>
        <mxCell id="Gn4zh_4aXrjwHgvgF4n6-1" value="" style="shape=partialRectangle;whiteSpace=wrap;html=1;bottom=1;right=1;left=1;top=0;fillColor=none;routingCenterX=-0.5;" vertex="1" parent="1">
          <mxGeometry x="545" y="590" width="20" height="60" as="geometry" />
        </mxCell>
        <mxCell id="Gn4zh_4aXrjwHgvgF4n6-2" value="" style="shape=partialRectangle;whiteSpace=wrap;html=1;bottom=1;right=1;left=1;top=0;fillColor=none;routingCenterX=-0.5;" vertex="1" parent="1">
          <mxGeometry x="565" y="580" width="20" height="60" as="geometry" />
        </mxCell>
        <mxCell id="Gn4zh_4aXrjwHgvgF4n6-3" value="" style="endArrow=none;dashed=1;html=1;dashPattern=1 1;strokeWidth=1;rounded=0;entryX=0.75;entryY=0.333;entryDx=0;entryDy=0;entryPerimeter=0;" edge="1" parent="1">
          <mxGeometry width="50" height="50" relative="1" as="geometry">
            <mxPoint x="500" y="590" as="sourcePoint" />
            <mxPoint x="544" y="589.9799999999999" as="targetPoint" />
          </mxGeometry>
        </mxCell>
        <mxCell id="Gn4zh_4aXrjwHgvgF4n6-4" value="" style="endArrow=none;dashed=1;html=1;dashPattern=1 1;strokeWidth=1;rounded=0;entryX=0.75;entryY=0.333;entryDx=0;entryDy=0;entryPerimeter=0;" edge="1" parent="1">
          <mxGeometry width="50" height="50" relative="1" as="geometry">
            <mxPoint x="500" y="600" as="sourcePoint" />
            <mxPoint x="544" y="599.9799999999999" as="targetPoint" />
          </mxGeometry>
        </mxCell>
        <mxCell id="Gn4zh_4aXrjwHgvgF4n6-5" value="" style="endArrow=none;dashed=1;html=1;dashPattern=1 1;strokeWidth=1;rounded=0;entryX=0.75;entryY=0.333;entryDx=0;entryDy=0;entryPerimeter=0;" edge="1" parent="1">
          <mxGeometry width="50" height="50" relative="1" as="geometry">
            <mxPoint x="500" y="611" as="sourcePoint" />
            <mxPoint x="544" y="610.9799999999999" as="targetPoint" />
          </mxGeometry>
        </mxCell>
        <mxCell id="Gn4zh_4aXrjwHgvgF4n6-6" value="" style="endArrow=none;dashed=1;html=1;dashPattern=1 1;strokeWidth=1;rounded=0;entryX=0.75;entryY=0.333;entryDx=0;entryDy=0;entryPerimeter=0;" edge="1" parent="1">
          <mxGeometry width="50" height="50" relative="1" as="geometry">
            <mxPoint x="501" y="630" as="sourcePoint" />
            <mxPoint x="545" y="629.9799999999999" as="targetPoint" />
          </mxGeometry>
        </mxCell>
        <mxCell id="Gn4zh_4aXrjwHgvgF4n6-7" value="" style="endArrow=none;dashed=1;html=1;dashPattern=1 1;strokeWidth=1;rounded=0;entryX=0.75;entryY=0.333;entryDx=0;entryDy=0;entryPerimeter=0;" edge="1" parent="1">
          <mxGeometry width="50" height="50" relative="1" as="geometry">
            <mxPoint x="501" y="650" as="sourcePoint" />
            <mxPoint x="545" y="649.9799999999999" as="targetPoint" />
          </mxGeometry>
        </mxCell>
      </root>
    </mxGraphModel>
  </diagram>
</mxfile>
